<svg width="112" height="105" viewBox="0 0 112 105" fill="none" xmlns="http://www.w3.org/2000/svg">
<path d="M89.1249 15.5485L85.0373 16.6438C84.1658 13.3915 82.0381 10.6186 79.1222 8.93512C76.2063 7.25162 72.741 6.79541 69.4888 7.66686C66.2365 8.5383 63.4636 10.666 61.7801 13.5819C60.0966 16.4978 59.6404 19.9631 60.5118 23.2154L44.1615 27.5964C43.2901 24.3441 41.1624 21.5712 38.2465 19.8877C35.3306 18.2042 31.8653 17.748 28.613 18.6195C25.3607 19.4909 22.5879 21.6186 20.9044 24.5346C19.2208 27.4505 18.7646 30.9157 19.6361 34.168L15.5485 35.2633C12.2962 36.1347 9.52334 38.2624 7.83984 41.1783C6.15634 44.0942 5.70013 47.5595 6.57157 50.8118L23.0005 112.125C23.872 115.378 25.9997 118.151 28.9156 119.834C31.8315 121.518 35.2967 121.974 38.549 121.102L112.125 101.388C115.378 100.516 118.151 98.3884 119.834 95.4725C121.518 92.5566 121.974 89.0914 121.102 85.8391L104.673 24.5255C103.802 21.2732 101.674 18.5003 98.7583 16.8168C95.8424 15.1333 92.3771 14.6771 89.1249 15.5485ZM17.739 43.4384L21.8266 42.3431C22.6981 45.5954 24.8258 48.3683 27.7417 50.0518C30.6576 51.7353 34.1228 52.1915 37.3751 51.3201C38.4592 51.0296 39.3835 50.3204 39.9447 49.3484C40.5058 48.3764 40.6579 47.2213 40.3674 46.1372C40.077 45.0531 39.3677 44.1289 38.3957 43.5677C37.4238 43.0065 36.2687 42.8544 35.1846 43.1449C34.1005 43.4354 32.9454 43.2833 31.9735 42.7222C31.0015 42.161 30.2922 41.2367 30.0018 40.1526L27.8112 31.9775C27.5208 30.8934 27.6728 29.7383 28.234 28.7663C28.7952 27.7943 29.7195 27.0851 30.8035 26.7946C31.8876 26.5041 33.0427 26.6562 34.0147 27.2174C34.9867 27.7786 35.6959 28.7028 35.9864 29.7869L37.0816 33.8745C37.3721 34.9586 38.0814 35.8829 39.0533 36.4441C40.0253 37.0052 41.1804 37.1573 42.2645 36.8668L62.7024 31.3905C63.5738 34.6428 65.7015 37.4157 68.6174 39.0992C71.5333 40.7827 74.9986 41.2389 78.2509 40.3675C79.335 40.077 80.2593 39.3677 80.8204 38.3958C81.3816 37.4238 81.5337 36.2687 81.2432 35.1846C80.9527 34.1005 80.2435 33.1762 79.2715 32.6151C78.2995 32.0539 77.1444 31.9018 76.0603 32.1923C74.9763 32.4828 73.8212 32.3307 72.8492 31.7695C71.8772 31.2084 71.168 30.2841 70.8775 29.2L68.687 21.0248C68.3965 19.9408 68.5486 18.7857 69.1097 17.8137C69.6709 16.8417 70.5952 16.1325 71.6793 15.842C72.7634 15.5515 73.9185 15.7036 74.8904 16.2648C75.8624 16.8259 76.5716 17.7502 76.8621 18.8343L77.9574 22.9219C78.2479 24.006 78.9571 24.9303 79.9291 25.4915C80.901 26.0526 82.0561 26.2047 83.1402 25.9142L91.3154 23.7237C92.3995 23.4332 93.5546 23.5853 94.5265 24.1464C95.4985 24.7076 96.2077 25.6319 96.4982 26.716L100.879 43.0663L19.1278 64.9715L14.7467 48.6212C14.4562 47.5371 14.6083 46.3821 15.1695 45.4101C15.7306 44.4381 16.6549 43.7289 17.739 43.4384ZM109.935 93.2124L36.3585 112.927C35.2744 113.218 34.1193 113.066 33.1473 112.504C32.1754 111.943 31.4661 111.019 31.1757 109.935L21.3183 73.1467L103.07 51.2414L112.927 88.0296C113.218 89.1137 113.066 90.2688 112.504 91.2408C111.943 92.2127 111.019 92.922 109.935 93.2124Z" fill="#FFE7C2" fill-opacity="0.28"/>
<path d="M66.5751 78.5444C68.8326 77.9395 70.1723 75.619 69.5674 73.3615C68.9625 71.104 66.6421 69.7643 64.3846 70.3692C62.1271 70.9741 60.7874 73.2946 61.3923 75.5521C61.9972 77.8096 64.3176 79.1493 66.5751 78.5444Z" fill="#FFE7C2" fill-opacity="0.28"/>
<path d="M91.1004 71.9728C93.358 71.3679 94.6977 69.0475 94.0928 66.79C93.4879 64.5325 91.1674 63.1927 88.9099 63.7976C86.6524 64.4025 85.3127 66.723 85.9176 68.9805C86.5225 71.238 88.8429 72.5777 91.1004 71.9728Z" fill="#FFE7C2" fill-opacity="0.28"/>
<path d="M42.0498 85.116C44.3073 84.5111 45.647 82.1906 45.0421 79.9331C44.4372 77.6756 42.1167 76.3359 39.8592 76.9408C37.6017 77.5457 36.262 79.8661 36.8669 82.1236C37.4718 84.3811 39.7923 85.7209 42.0498 85.116Z" fill="#FFE7C2" fill-opacity="0.28"/>
<path d="M70.9562 94.8947C73.2137 94.2898 74.5534 91.9694 73.9485 89.7118C73.3436 87.4543 71.0231 86.1146 68.7656 86.7195C66.5081 87.3244 65.1684 89.6449 65.7733 91.9024C66.3782 94.1599 68.6987 95.4996 70.9562 94.8947Z" fill="#FFE7C2" fill-opacity="0.28"/>
<path d="M95.4816 88.3231C97.7391 87.7182 99.0788 85.3978 98.4739 83.1403C97.869 80.8827 95.5485 79.543 93.291 80.1479C91.0335 80.7528 89.6938 83.0733 90.2987 85.3308C90.9036 87.5883 93.224 88.928 95.4816 88.3231Z" fill="#FFE7C2" fill-opacity="0.28"/>
<path d="M46.4305 101.466C48.688 100.861 50.0277 98.5409 49.4228 96.2834C48.8179 94.0259 46.4975 92.6862 44.24 93.2911C41.9825 93.896 40.6428 96.2164 41.2477 98.4739C41.8526 100.731 44.173 102.071 46.4305 101.466Z" fill="#FFE7C2" fill-opacity="0.28"/>
</svg>
